<?xml version="1.0" encoding="utf-8"?>
<!-- Generator: Adobe Illustrator 14.0.0, SVG Export Plug-In . SVG Version: 6.00 Build 43363)  -->
<!DOCTYPE svg PUBLIC "-//W3C//DTD SVG 1.1//EN" "http://www.w3.org/Graphics/SVG/1.1/DTD/svg11.dtd">
<svg version="1.1" id="レイヤー_1" xmlns="http://www.w3.org/2000/svg" xmlns:xlink="http://www.w3.org/1999/xlink" x="0px"
	 y="0px" width="730.001px" height="497.069px" viewBox="0 0 730.001 497.069" enable-background="new 0 0 730.001 497.069"
	 xml:space="preserve">
<g>
	<rect x="0.375" y="0.375" fill="#F2F2F2" width="729.25" height="29.25"/>
	<g>
		<path fill="#666666" d="M729.25,0.75v28.5H0.75V0.75H729.25 M730,0H0v30h730V0L730,0z"/>
	</g>
</g>
<g>
	<rect x="0.375" y="45.375" fill="#F2F2F2" width="729.25" height="49.25"/>
	<g>
		<path fill="#666666" d="M729.25,45.75v48.5H0.75v-48.5H729.25 M730,45H0v50h730V45L730,45z"/>
	</g>
</g>
<g>
	<rect x="0.376" y="425.375" fill="#F2F2F2" width="729.25" height="49.25"/>
	<path fill="#666666" d="M729.251,425.75v48.5H0.751v-48.5H729.251 M730.001,425h-730v50h730V425L730.001,425z"/>
</g>
<text transform="matrix(1 0 0 1 330.9141 20.2847)" font-family="'Meiryo'" font-size="14" font-weight='700' fill='#666666'>商品を選ぶ</text>
<g>
	<text transform="matrix(1 0 0 1 323.001 445.0654)" font-family="'Meiryo'" font-size="14" font-weight='700' fill='#666666'>商品のお受取</text>
</g>
<line fill="none" stroke="#666666" stroke-width="4" x1="365.914" y1="30" x2="365.914" y2="45"/>
<line fill="none" stroke="#666666" stroke-width="4" x1="365" y1="95" x2="365" y2="110"/>
<g>
	<path fill="#666666" d="M729.75,110.25v19.5H0.25v-19.5H729.75 M730,110H0v20h730V110L730,110z"/>
</g>
<g>
	<text transform="matrix(1 0 0 1 92.501 123.1895)"><tspan x="0" y="0" fill="#595757" font-family="'Meiryo'" font-size="10">ご注文後、弊社より「注文請書」を送信いたします。こちらの記載内容をご確認の上、ご入金手続きをお願いいたします</tspan><tspan x="540" y="0" fill="#595757" font-family="'Meiryo'" font-size="10" letter-spacing="-5">。</tspan></text>
</g>
<g>
	<text transform="matrix(1 0 0 1 272.5718 89.1221)"><tspan x="0" y="0" fill="#595757" font-family="'Meiryo'" font-size="10">FA</tspan><tspan x="12.49" y="0" fill="#595757" font-family="'Meiryo'" font-size="10" letter-spacing="2">X</tspan><tspan x="21.685" y="0" fill="#595757" font-family="'Meiryo'" font-size="10">または、メールにてご依頼ください</tspan><tspan x="181.684" y="0" fill="#595757" font-family="'Meiryo'" font-size="10" letter-spacing="-5">。</tspan></text>
</g>
<line fill="none" stroke="#666666" stroke-width="0.5" stroke-dasharray="1,1" x1="0" y1="75" x2="730" y2="75"/>
<line fill="none" stroke="#666666" stroke-width="0.5" stroke-dasharray="1,1" x1="0.001" y1="455" x2="730.001" y2="455"/>
<g>
	<text transform="matrix(1 0 0 1 4.0854 492.6699)"><tspan x="0" y="0" fill="#595757" font-family="'Meiryo'" font-size="10">※</tspan><tspan x="10" y="0" fill="#595757" font-family="'Meiryo'" font-size="10" letter-spacing="2">1</tspan><tspan x="18.711" y="0" fill="#595757" font-family="'Meiryo'" font-size="10">お客様のご都合によりキャンセルされた場合、前受金はご返金いたしかねますので、予めご了承ください</tspan><tspan x="488.711" y="0" fill="#595757" font-family="'Meiryo'" font-size="10" letter-spacing="-5">。</tspan></text>
</g>
<g>
	<text transform="matrix(1 0 0 1 344.9141 67.3037)" font-family="'Meiryo'" font-size="14" font-weight='700' fill='#666666'>ご注文</text>
</g>
<g>
	<text transform="matrix(1 0 0 1 36.896 469.4082)"><tspan x="0" y="0" fill="#333333" font-family="'Meiryo'" font-size="10">商品が届きましたら、ご注文商品の確認をお願い致します。商品の間違い、破損等がある場合、商品到着</tspan><tspan x="470" y="0" fill="#333333" font-family="'Meiryo'" font-size="10" letter-spacing="2">後3</tspan><tspan x="491.21" y="0" fill="#333333" font-family="'Meiryo'" font-size="10">日以内にご連絡をお願いいたします</tspan><tspan x="651.21" y="0" fill="#333333" font-family="'Meiryo'" font-size="10" letter-spacing="-5">。</tspan></text>
</g>
<g>
	<rect x="0.376" y="325.375" fill="#F2F2F2" width="349.25" height="49.25"/>
	<path fill="#666666" d="M349.25,325.75v48.5H0.751v-48.5H349.25 M350,325h-350v50h350V325L350,325z"/>
</g>
<line fill="none" stroke="#666666" stroke-width="6" x1="555.914" y1="130" x2="555.914" y2="145"/>
<line fill="none" stroke="#666666" stroke-width="4" x1="555.914" y1="165" x2="555.914" y2="180"/>
<rect x="380" y="145" fill="#666666" width="350" height="20"/>
<rect x="0.001" y="145" fill="#666666" width="350" height="20"/>
<line fill="none" stroke="#666666" stroke-width="4" x1="175.001" y1="130" x2="175.001" y2="145"/>
<line fill="none" stroke="#666666" stroke-width="4" x1="175.001" y1="165" x2="175.001" y2="325.704"/>
<line fill="none" stroke="#666666" stroke-width="4" x1="175.914" y1="375" x2="175.914" y2="390"/>
<line fill="none" stroke="#666666" stroke-width="4" x1="555.914" y1="375" x2="555.914" y2="390"/>
<line fill="none" stroke="#666666" stroke-width="4" x1="365.001" y1="410" x2="365.001" y2="425"/>
<line fill="none" stroke="#666666" stroke-width="4" x1="555.914" y1="240" x2="555.914" y2="255"/>
<line fill="none" stroke="#666666" stroke-width="4" x1="555.914" y1="275" x2="555.914" y2="290"/>
<line fill="none" stroke="#666666" stroke-width="4" x1="555.914" y1="310" x2="555.914" y2="325"/>
<text transform="matrix(1 0 0 1 112.0215 160.0659)"><tspan x="0" y="0" fill="#FFFFFF" font-family="'Meiryo'" font-weight='700' font-size="14">国内在庫商品</tspan><tspan x="84" y="0" fill="#FFFFFF" font-family="'Meiryo'" font-size="14">の場</tspan><tspan x="112" y="0" fill="#FFFFFF" font-family="'Meiryo'" font-size="14" letter-spacing="-2">合</tspan></text>
<text transform="matrix(1 0 0 1 492.9141 159.5659)"><tspan x="0" y="0" fill="#FFFFFF" font-family="'Meiryo'" font-weight='700' font-size="14">海外手配商品</tspan><tspan x="84" y="1" fill="#FFFFFF" font-family="'Meiryo'" font-size="14">の場合</tspan></text>
<g>
	<path fill="#666666" d="M729.75,255.25v19.5h-349.5v-19.5H729.75 M730,255H380v20h350V255L730,255z"/>
</g>
<g>
	<text transform="matrix(1 0 0 1 398.4141 268.1899)"><tspan x="0" y="0" fill="#333333" font-family="'Meiryo'" font-size="10">弊社にてメーカー発注後、おおよその入荷予定時期を連絡いたします</tspan><tspan x="310" y="0" fill="#333333" font-family="'Meiryo'" font-size="10" letter-spacing="-5">。</tspan></text>
</g>
<g>
	<path fill="#666666" d="M729.75,290.25v19.5h-349.5v-19.5H729.75 M730,290H380v20h350V290L730,290z"/>
</g>
<g>
	<text transform="matrix(1 0 0 1 458.4141 303.1909)"><tspan x="0" y="0" fill="#333333" font-family="'Meiryo'" font-size="10">商品入荷確認後、弊社より連絡いたします</tspan><tspan x="190" y="0" fill="#333333" font-family="'Meiryo'" font-size="10" letter-spacing="-5">。</tspan></text>
</g>
<g>
	<path fill="#666666" d="M729.751,390.25v19.5H0.251v-19.5H729.751 M730.001,390h-730v20h730V390L730.001,390z"/>
</g>
<text transform="matrix(1 0 0 1 147.501 403.1904)"><tspan x="0" y="0" fill="#333333" font-family="'Meiryo'" font-size="10">ご入金またはクレジットカード情報ご入力完了を確認後、発送日、到着予定日を連絡いたします</tspan><tspan x="430" y="0" fill="#333333" font-family="'Meiryo'" font-size="10" letter-spacing="-5">。</tspan></text>
<g>
	<text transform="matrix(1 0 0 1 30.8164 368.1909)" fill="#333333" font-family="'Meiryo'" font-size="10">お支払方法：　① 銀行振込　② 郵便振替　③ クレジットカード</text>
</g>
<g>
	<text transform="matrix(1 0 0 1 43.9395 346.0557)"><tspan x="0" y="0" font-family="'Meiryo'" font-weight='700' fill='#666666' font-size="14">到着希望日</tspan><tspan x="70" y="0" font-family="'Meiryo'"  font-weight='700' fill='#666666' font-size="14" letter-spacing="3">の</tspan><tspan x="87.5" y="0" font-family="'Meiryo'" font-weight='700' fill='#666666' font-size="14">1</tspan><tspan x="96.975" y="0" font-family="'Meiryo'"  font-weight='700' fill='#666666' font-size="14" letter-spacing="3">0</tspan><tspan x="109.949" y="0" font-family="'Meiryo'" font-weight='700' fill='#666666' font-size="14">日前までにお支払い手続</tspan></text>
</g>
<line fill="none" stroke="#666666" stroke-width="0.5" stroke-dasharray="1,1" x1="0.001" y1="355" x2="350" y2="355"/>
<g>
	<rect x="380.375" y="325.375" fill="#F2F2F2" width="349.25" height="49.25"/>
	<path fill="#666666" d="M729.25,325.75v48.5h-348.5v-48.5H729.25 M730,325H380v50h350V325L730,325z"/>
</g>
<g>
	<text transform="matrix(1 0 0 1 413.4395 346.0557)"><tspan x="0" y="0" font-family="'Meiryo'" font-weight='700' fill='#666666' font-size="14">到着希望日</tspan><tspan x="70" y="0" font-family="'Meiryo'" font-weight='700' fill='#666666' font-size="14">の</tspan><tspan x="83.3" y="0" font-family="'Meiryo'" font-weight='700' fill='#666666' font-size="14">1</tspan><tspan x="92.774" y="0" font-family="'Meiryo'" font-weight='700' fill='#666666' font-size="14">0</tspan><tspan x="102.949" y="0" font-family="'Meiryo'" font-weight='700' fill='#666666' font-size="14">日前までに残金お支払い手続</tspan></text>
</g>
<line fill="none" stroke="#666666" stroke-width="0.5" stroke-dasharray="1,1" x1="380" y1="355" x2="730" y2="355"/>
<g>
	<text transform="matrix(1 0 0 1 410.8164 368.1909)" fill="#333333" font-family="'Meiryo'" font-size="10">お支払方法：　① 銀行振込　② 郵便振替　③ クレジットカード</text>
</g>
<g>
	<rect x="380.375" y="180.375" fill="#F2F2F2" width="349.25" height="59.25"/>
	<path fill="#666666" d="M729.25,180.75v58.5h-348.5v-58.5H729.25 M730,180H380v60h350V180L730,180z"/>
</g>
<g>
	<text transform="matrix(1 0 0 1 460.8164 233.1909)" fill="#333333" font-family="'Meiryo'" font-size="10">お支払方法：　① 銀行振込　② 郵便振替 </text>
</g>
<g>
	<text transform="matrix(1 0 0 1 415.4102 200.0903)"><tspan x="0" y="0" font-family="'Meiryo'" font-weight='700' fill='#666666' font-size="14">前受金として商品代金の15％相当お支払い</tspan><tspan x="270.949" y="-6.023" font-family="'Meiryo'" font-weight='700' fill='#666666' font-size="6">※1</tspan></text>
</g>
<line fill="none" stroke="#666666" stroke-width="0.5" stroke-dasharray="1,1" x1="380" y1="220" x2="730" y2="220"/>
<text transform="matrix(1 0 0 1 433.4141 215.6167)"><tspan x="0" y="0" fill="#333333" font-family="'Meiryo'" font-size="10">（千円未満を切り捨てた金額を請求させて頂きます</tspan><tspan x="230" y="0" fill="#333333" font-family="'Meiryo'" font-size="10" letter-spacing="-5">。）</tspan></text>
<rect x="279.109" y="147.5" fill="#FFFFFF" width="68.391" height="15"/>
<g>
	<text transform="matrix(1 0 0 1 281.4126 159)"><tspan x="0" y="0" fill="#666666" font-family="'Meiryo'" font-size="10">納</tspan><tspan x="10" y="0" fill="#666666" font-family="'Meiryo'" font-size="10" letter-spacing="2">期:</tspan><tspan x="29.297" y="0" fill="#666666" font-family="'Meiryo'" font-size="10" letter-spacing="1">約</tspan><tspan x="40.797" y="0" fill="#666666" font-family="'Meiryo'" font-size="10">1</tspan><tspan x="47.008" y="0" fill="#666666" font-family="'Meiryo'" font-size="10" letter-spacing="1">0</tspan><tspan x="54.719" y="0" fill="#666666" font-family="'Meiryo'" font-size="10">日</tspan></text>
</g>
<rect x="643.699" y="147.5" fill="#FFFFFF" width="84.715" height="15"/>
<g>
	<text transform="matrix(1 0 0 1 648.0352 159)" fill="#666666" font-family="'Meiryo'" font-size="10">納</text>
	<text transform="matrix(1 0 0 1 658.0352 159)" fill="#666666" font-family="'Meiryo'" font-size="10" letter-spacing="1">期:</text>
	<text transform="matrix(1 0 0 1 675.332 159)" fill="#666666" font-family="'Meiryo'" font-size="10" letter-spacing="1">約</text>
	<text transform="matrix(1 0 0 1 686.332 159)" fill="#666666" font-family="'Meiryo'" font-size="10" letter-spacing="-1">4</text>
	<text transform="matrix(0.75 0 0 1 693.418 159)" fill="#666666" font-family="'Meiryo'" font-size="10">～</text>
	<text transform="matrix(1 0 0 1 702.668 159)" fill="#666666" font-family="'Meiryo'" font-size="10">6</text>
	<text transform="matrix(1 0 0 1 708.3789 159)" fill="#666666" font-family="'Meiryo'" font-size="10" letter-spacing="-1">ヶ</text>
	<text transform="matrix(1 0 0 1 717.3789 159)" fill="#666666" font-family="'Meiryo'" font-size="10">月</text>
</g>
<line fill="none" x1="370.914" y1="373.291" x2="370.914" y2="393.291"/>
</svg>
