<?xml version="1.0" encoding="utf-8"?>
<!-- Generator: Adobe Illustrator 14.0.0, SVG Export Plug-In . SVG Version: 6.00 Build 43363)  -->
<!DOCTYPE svg PUBLIC "-//W3C//DTD SVG 1.1//EN" "http://www.w3.org/Graphics/SVG/1.1/DTD/svg11.dtd">
<svg version="1.1" id="レイヤー_1" xmlns="http://www.w3.org/2000/svg" xmlns:xlink="http://www.w3.org/1999/xlink" x="0px"
	 y="0px" width="674.044px" height="232.529px" viewBox="0 0 674.044 232.529" enable-background="new 0 0 674.044 232.529"
	 xml:space="preserve">
<g>
	<rect x="257.188" y="66.637" width="330.97" height="12.363"/>
	<rect x="241.345" y="66.637" width="12.363" height="161.892"/>
	<rect x="591.638" y="66.637" width="12.362" height="161.892"/>
	<rect x="19.843" y="66.637" width="148.146" height="12.363"/>
	<rect x="4" y="66.637" width="12.363" height="161.892"/>
	<rect x="171.464" y="66.637" width="12.363" height="161.892"/>
</g>
<circle cx="4" cy="28.184" r="3"/>
<circle cx="183.827" cy="28.184" r="3"/>
<circle cx="241.345" cy="28.184" r="3"/>
<circle cx="604" cy="28.184" r="3"/>
<circle cx="641.044" cy="66.637" r="3"/>
<circle cx="641.044" cy="228.529" r="3"/>
<text transform="matrix(1 0 0 1 20 40)" font-family="'メイリオ'" font-size="35">80 - 120</text>
<text transform="matrix(1 0 0 1 335 40)" font-family="'メイリオ'" font-size="35">120 - 300</text>
<text transform="matrix(1 0 0 1 620 154.084)" font-family="'メイリオ'" font-size="35">72</text>
</svg>
